<svg xmlns="http://www.w3.org/2000/svg" width="32" height="32" viewBox="0 0 32 32"><g fill-rule="evenodd"><path fill="#fbfafb" d="M16.34 11.242c0 .035.008.067.02.074.007.004.011-.023.007-.066-.012-.086-.027-.094-.027-.008m-.184.328c-.004.02-.008.059-.004.094.008.047.012.043.02-.031q.019-.14-.016-.063m.399 1.387c0 .043.008.078.015.086.012.004.012-.027.008-.074-.008-.102-.023-.11-.023-.012m.07.527c0 .04.004.055.008.036a.12.12 0 0 0 0-.075q-.007-.028-.008.04m-.375.519c-.008.047-.016.14-.016.203 0 .066-.015.2-.035.3a1.4 1.4 0 0 0-.031.278c0 .05-.012.113-.027.137-.028.047-.059.16-.098.351a.8.8 0 0 1-.074.211.4.4 0 0 0-.055.133c0 .02-.027.102-.062.176a1 1 0 0 0-.067.164c0 .012-.02.063-.047.113s-.062.13-.078.176a.6.6 0 0 1-.066.137.7.7 0 0 0-.074.172c-.02.066-.051.148-.067.191-.023.05-.023.074-.008.086q.024.017-.047.09a.6.6 0 0 0-.109.16c-.031.078-.14.238-.258.375a1 1 0 0 0-.082.117c-.031.043-.07.094-.086.11-.02.015-.035.043-.035.054a.5.5 0 0 1-.105.153.8.8 0 0 0-.118.18c-.007.03-.07.093-.14.148a.7.7 0 0 0-.13.11.3.3 0 0 1-.058.077c-.03.035-.109.121-.172.192a.7.7 0 0 1-.152.144c-.023.008-.043.028-.043.04 0 .038-.14.163-.183.163a.03.03 0 0 0-.032.032c0 .015-.035.046-.074.066a.3.3 0 0 0-.101.07.4.4 0 0 1-.192.11c-.02 0-.066.027-.113.062a.3.3 0 0 1-.113.063.1.1 0 0 0-.059.023c-.016.016-.156.07-.32.125s-.297.106-.297.117c0 .02.273.203.351.242.043.02.43.356.582.504a1 1 0 0 0 .137.121c.055 0 .754.801.754.864 0 .015.078.113.176.215s.191.21.21.242a.5.5 0 0 0 .071.086c.02.015.063.078.09.133a.6.6 0 0 0 .101.152c.059.058.184.25.184.285 0 .016.02.04.04.055.05.035.323.601.323.664 0 .015.028.07.063.125a1 1 0 0 1 .097.23c.06.23.13.477.16.543a.4.4 0 0 1 .028.117c.008.043.027.133.043.204.059.23.101.425.133.617.082.508.117.586.117.293a.6.6 0 0 1 .02-.16c.023-.086.085-.41.109-.579.012-.07.039-.183.062-.246.02-.066.047-.156.055-.203a.5.5 0 0 1 .043-.137 1 1 0 0 0 .05-.152c.032-.117.102-.27.13-.285.011-.008.02-.031.02-.05a.4.4 0 0 1 .03-.09c.04-.075.118-.212.165-.29a.6.6 0 0 0 .05-.117 1.1 1.1 0 0 1 .184-.254c.008-.008.035-.062.066-.12a2 2 0 0 1 .098-.173.3.3 0 0 0 .047-.082 1 1 0 0 1 .098-.137.7.7 0 0 0 .093-.14c0-.012.051-.07.11-.137a2 2 0 0 0 .156-.191 1.6 1.6 0 0 1 .3-.305c.02-.012.032-.031.032-.047 0-.031.09-.12.125-.12.012 0 .05-.032.082-.067a.6.6 0 0 1 .137-.118c.039-.027.097-.074.129-.105a.7.7 0 0 1 .156-.11.6.6 0 0 0 .148-.1.6.6 0 0 1 .11-.083c.035-.02.078-.043.097-.055.016-.011.117-.062.223-.109a8 8 0 0 0 .25-.117.3.3 0 0 1 .086-.031c.02 0 .043-.012.055-.028a.3.3 0 0 1 .125-.058c.136-.032.304-.11.304-.141 0-.027-.054-.05-.222-.102a3 3 0 0 1-.383-.14l-.238-.13a2 2 0 0 1-.266-.16c-.031-.03-.07-.05-.09-.05s-.055-.035-.078-.07a.5.5 0 0 0-.11-.121c-.14-.102-.25-.172-.277-.172a.6.6 0 0 1-.137-.114 3 3 0 0 0-.207-.195.4.4 0 0 1-.12-.14.2.2 0 0 0-.067-.087.25.25 0 0 1-.078-.101.3.3 0 0 0-.074-.106.4.4 0 0 1-.086-.132.7.7 0 0 0-.075-.13.7.7 0 0 1-.074-.16 1.3 1.3 0 0 0-.105-.222.7.7 0 0 1-.078-.148 2 2 0 0 0-.157-.344.3.3 0 0 1-.043-.13.5.5 0 0 0-.09-.253.2.2 0 0 1-.038-.082c0-.031-.012-.059-.114-.285a.7.7 0 0 1-.054-.145c0-.012-.028-.082-.06-.156a3 3 0 0 1-.105-.367 11 11 0 0 0-.074-.32 2 2 0 0 1-.039-.223 4 4 0 0 0-.097-.473 7 7 0 0 1-.079-.578c0-.023 0-.09.004-.152a.6.6 0 0 0-.027-.188l-.031-.07zm-1.871 3.059c0 .027.004.027.035.003l.047-.035q.004-.006-.04 0c-.023 0-.042.016-.042.032m-.832 1.449c-.05.043-.106.082-.125.082a.1.1 0 0 0-.059.039c-.011.02-.027.027-.035.02-.008-.005-.023.007-.035.035-.016.023-.035.039-.047.03-.012-.007-.02 0-.02.012s-.023.028-.054.036c-.027.007-.05.027-.05.043s-.02.027-.04.027a.2.2 0 0 0-.082.031.16.16 0 0 1-.074.035c-.02 0-.04.016-.047.04-.012.038-.008.038.059 0a.24.24 0 0 1 .101-.04c.024 0 .04-.011.04-.023q.002-.019.038-.02c.02 0 .067-.03.106-.066a.5.5 0 0 1 .082-.063c.023 0 .37-.296.347-.296-.004 0-.05.035-.105.078m-1.34.722c-.012.008-.027.02-.027.032 0 .011.015.015.027.004a.3.3 0 0 1 .055-.02c.015-.004.035-.008.043-.016.015-.015-.059-.015-.098 0m6.832.024c.02.027.047.043.055.039.011-.008.023 0 .027.012q.013.018.008-.004-.007-.02-.02-.016c-.004.004-.035-.012-.062-.035l-.05-.043zm-6.95.02c-.023.023-.019.05.009.05.011 0 .015-.012.007-.023q-.015-.03.02-.012.035.011.023-.008c-.015-.023-.039-.027-.058-.008m7.129.082c-.024.024.047.09.11.106.026.012.07.031.089.05.02.016.039.024.039.012 0-.007.012-.004.023.016.02.027.02.027.012 0-.004-.02-.02-.031-.035-.027-.012.004-.027-.008-.035-.028-.008-.015-.043-.035-.082-.043-.043-.008-.078-.03-.09-.054s-.023-.04-.031-.032m.308.2c.028.043.102.074.086.035-.008-.02-.02-.028-.023-.024-.008.008-.027 0-.047-.011q-.034-.036-.016 0m-7.879.066c0 .02.106.05.122.04.003-.009-.02-.02-.055-.036-.04-.012-.067-.012-.067-.004m8.012.023c.004.008.031.02.063.028.027.004.047 0 .043-.008a.14.14 0 0 0-.063-.023c-.031-.008-.05-.004-.043.003m-7.5.204c0 .035.031.066.074.082.036.011.04.011.012-.012-.02-.016-.043-.043-.059-.059-.015-.02-.027-.023-.027-.011m.223.168c.05.03.117.058.117.046a.5.5 0 0 0-.145-.078c-.007 0 .008.016.028.032m.289.199c0 .015.023.031.05.039a.16.16 0 0 1 .087.062c.02.032.05.051.07.051q.046.002-.008-.02a.13.13 0 0 1-.059-.062c-.007-.023-.03-.043-.05-.043a.1.1 0 0 1-.063-.027q-.028-.03-.027 0m.59.484c.004.016.035.031.062.04.067.01.067.003-.011-.036-.047-.023-.06-.023-.051-.004m6.265.031a.2.2 0 0 0-.058.043c-.008.012.015.004.05-.011.036-.02.067-.036.067-.043 0-.012 0-.012-.059.011m-5.988.211c-.008.012.012.043.047.07q.053.052.02.008a.2.2 0 0 1-.036-.058c0-.031-.02-.043-.03-.02m5.648.016c-.02.05 0 .055.03.008q.023-.041.005-.04a.036.036 0 0 0-.035.032m-.754.66c-.028.031-.063.055-.079.055-.03 0-.105.082-.09.097.008.008.067-.035.13-.097a1 1 0 0 0 .101-.106c-.008-.004-.035.024-.062.051m-3.653 1.195a1 1 0 0 0 .078.13c.02.023.008-.009-.023-.067a1 1 0 0 0-.078-.125c-.012-.012 0 .016.023.062m.09.235c0 .015.008.031.02.031.023 0 .054.086.062.172.004.05.043.058.043.004 0-.047-.09-.238-.11-.238q-.016 0-.015.03m2.293.255c-.035.066-.055.129-.047.144q.012.029.012-.008c0-.023.012-.039.02-.039.011 0 .03-.039.046-.086s.035-.086.047-.086q.014 0 .016-.02c0-.054-.043-.01-.094.095m-3.277.008.011.101.008-.082c.004-.047 0-.094-.011-.102-.008-.011-.012.028-.008.082m1.152.184c0 .016.016.035.035.043.028.012.031.02.008.047-.02.023-.02.031.008.043a.05.05 0 0 1 .031.047c0 .02.004.05.012.07q.018.039-.024.047c-.023.008-.02.012.02.012.043.004.059-.008.059-.035a.6.6 0 0 0-.079-.223.1.1 0 0 1-.027-.05c0-.017-.008-.032-.02-.032-.011 0-.023.015-.023.031m1.79.54c-.013.007-.017.03-.017.046 0 .023.004.027.024.008.012-.012.02-.031.016-.047q-.012-.019-.024-.008m-.058.14c-.032.087-.028.098.011.044.016-.028.028-.063.024-.074-.008-.016-.02 0-.035.03m-.102.34c-.031.04-.05.13-.027.114.011-.008.02-.031.02-.05a.1.1 0 0 1 .026-.063c.012-.012.02-.024.012-.024a.1.1 0 0 0-.031.024m-.207.75c-.012.02-.012.043-.004.05.02.024.04-.007.027-.05-.007-.04-.007-.04-.023 0m-.832.386c.008.047.016.09.023.094.016.02.004-.094-.015-.137q-.022-.042-.008.043"/><path fill="#c40474" d="M18.398 3.605a6 6 0 0 0-.351.04 2 2 0 0 1-.235.042l-.21.043c-.055.016-.196.043-.313.067a1.6 1.6 0 0 0-.32.094.5.5 0 0 1-.137.054c-.02 0-.066.02-.11.043a2.3 2.3 0 0 1-.425.137.4.4 0 0 0-.121.063.6.6 0 0 1-.293.113.44.44 0 0 0-.172.086 1 1 0 0 1-.227.12 2.6 2.6 0 0 0-.41.208c-.011.012-.047.02-.074.023a.23.23 0 0 0-.11.032.3.3 0 0 1-.093.03.24.24 0 0 0-.102.052c-.035.03-.082.054-.105.054-.067 0-.508.203-.63.293a.5.5 0 0 1-.116.059.2.2 0 0 0-.102.078c-.027.035-.066.062-.094.062a.3.3 0 0 0-.12.063c-.216.18-.286.234-.31.234-.015 0-.046.02-.066.043-.023.024-.05.043-.062.043-.016 0-.047.02-.067.043a.4.4 0 0 1-.105.078.3.3 0 0 0-.094.075c-.015.023-.039.039-.05.039a.4.4 0 0 0-.102.086c-.074.082-.219.191-.254.191a.6.6 0 0 0-.11.086c-.05.047-.113.098-.132.117-.02.016-.043.031-.055.031a.4.4 0 0 0-.078.067.3.3 0 0 1-.078.062c-.031 0-.23.16-.23.184 0 .012-.051.055-.11.094a.5.5 0 0 0-.105.09c0 .027-.141.144-.176.144-.02 0-.051.027-.067.062a.6.6 0 0 1-.086.11c-.03.027-.054.062-.054.074-.004.035-.098.133-.149.149-.023.007-.043.027-.043.042 0 .079-.105.204-.172.204-.039 0-.074.015-.09.043-.015.023-.038.043-.054.043q-.025.001-.027.015c0 .012-.02.043-.051.07a.4.4 0 0 0-.07.118c-.028.078-.09.16-.122.16-.015 0-.035.027-.05.062-.02.04-.079.117-.133.184a.6.6 0 0 0-.13.215.3.3 0 0 1-.085.152c-.047.035-.063.07-.063.117 0 .051-.02.086-.074.137-.043.04-.074.09-.074.113s-.027.07-.059.102a1 1 0 0 0-.129.2 1 1 0 0 1-.101.167.1.1 0 0 0-.031.059.14.14 0 0 1-.032.07.3.3 0 0 0-.05.129.5.5 0 0 1-.075.172.5.5 0 0 0-.066.16.33.33 0 0 1-.074.152.94.94 0 0 0-.172.414c0 .04-.02.086-.047.114-.031.039-.047.085-.055.195a.5.5 0 0 1-.05.203.3.3 0 0 0-.043.094.14.14 0 0 1-.032.082.3.3 0 0 0-.03.129c0 .047-.017.148-.036.222a1.2 1.2 0 0 0-.035.246.4.4 0 0 1-.04.16c-.077.11-.046 1.657.032 1.747.02.023.035.11.043.218a.8.8 0 0 0 .047.243c.015.035.039.125.055.195.015.07.039.14.054.16.016.02.028.05.028.066 0 .02.011.043.02.047.01.008.026.055.034.106.008.066.028.105.067.129.03.023.062.074.082.148.03.102.172.293.222.293.008 0 .047.067.09.149.04.082.078.148.09.148.008 0 .047.031.086.07s.117.102.176.145c.054.039.133.11.176.152a.4.4 0 0 0 .09.082c.011 0 .081.043.163.094a.7.7 0 0 0 .172.098c.016 0 .075.039.13.086.058.046.116.086.14.086.02 0 .035.007.035.02 0 .023.121.085.164.085.016 0 .059.02.09.043a.4.4 0 0 0 .133.055c.039.007.129.047.199.086s.172.078.226.082a1 1 0 0 1 .157.043l.117.05c.059.024.289.082.457.114.059.011.156.027.215.039.058.011.164.027.234.035s.14.02.153.027c.027.024.496.024.539 0 .043-.023.3-.082.359-.082.02 0 .078-.023.125-.047.133-.066.293-.12.367-.12.086 0 .113-.02.098-.063-.012-.024-.008-.028.012-.02.015.012.03-.004.043-.039.019-.043.035-.055.093-.055.055 0 .086-.015.114-.054.023-.028.054-.051.07-.051a.13.13 0 0 0 .066-.027.4.4 0 0 1 .13-.059.6.6 0 0 0 .152-.066c.09-.067.18-.075.18-.02 0 .024-.016.043-.032.043q-.026.002-.016.04.011.04-.02.054c-.015.008-.03.035-.03.062 0 .035-.032.082-.075.125-.039.035-.07.075-.062.082.02.035-.016.086-.043.063-.031-.024-.055-.004-.055.047q.002.035-.043.023c-.023-.004-.043 0-.043.016 0 .012-.02.023-.047.023-.035 0-.043.008-.03.055.015.058-.09.223-.15.223-.015 0-.03.023-.034.054a.13.13 0 0 1-.047.082q-.096.054-.098.098c0 .043-.41.445-.453.445-.02 0-.047.024-.059.055s-.027.055-.039.055c-.008 0-.11.074-.219.168a2 2 0 0 1-.214.171.3.3 0 0 0-.086.063c-.04.035-.086.066-.106.066-.023 0-.039.008-.039.02s-.015.023-.031.023a.6.6 0 0 0-.137.051 6 6 0 0 1-.226.11c-.07.03-.196.09-.278.125-.176.085-.246.109-.285.101-.016-.004-.023.004-.016.016.004.008-.035.03-.085.043a1.3 1.3 0 0 0-.188.066 1 1 0 0 1-.156.055c-.117.023-.106.113.023.156.043.016.078.035.078.047s.016.02.04.02c.019 0 .054.015.078.038.023.02.054.036.07.032.012-.008.023 0 .023.011 0 .012.016.016.035.008q.036-.012.024.012c-.008.012.012.027.05.035.036.008.09.04.118.067a1 1 0 0 0 .172.105c.062.031.113.066.113.078 0 .008.016.02.031.02.016 0 .043.02.067.043.02.023.043.035.05.03.004-.007.024.009.04.032.015.024.046.043.066.043.023 0 .05.024.062.05.016.032.04.056.059.056.02 0 .063.027.094.062.035.04.074.066.086.066s.054.04.093.09a.6.6 0 0 0 .137.125c.031.016.113.086.184.157.07.07.113.117.097.105-.046-.027.125.164.204.234.043.032.074.079.074.102s.015.039.031.039c.043 0 .098.074.098.125 0 .027.007.047.015.047.028 0 .075.129.082.223.008.043.02.097.035.113a1 1 0 0 1 .036.234c.007.192-.004.25-.059.348s-.066.133-.066.21c0 .095-.036.216-.067.216q-.018.002-.02.039a.3.3 0 0 1-.03.097c-.032.059-.036.211-.004.239a.3.3 0 0 1 .015.117c0 .133.07.351.149.46a.4.4 0 0 1 .062.114c0 .023.133.156.305.313a.6.6 0 0 0 .18.101c.054.02.136.055.18.074.085.04.41.067.5.043.073-.02.116.008.116.082 0 .028.008.067.02.086.078.153.074.188-.027.293-.055.051-.098.114-.098.133 0 .023-.035.078-.074.121a.6.6 0 0 0-.098.172c-.016.047-.04.117-.055.152a.5.5 0 0 0-.03.164q.001.1-.032.11c-.035.012-.043.12-.012.18.012.019.031.132.047.25.016.148.035.222.062.253.024.024.043.059.043.079 0 .023.016.046.036.058a.2.2 0 0 1 .07.082c.05.106.133.176.195.176.031 0 .059.008.059.02 0 .019.16.09.21.09.145 0 .141-.012.227.671.082.637.114.797.164.797.036 0 .047-.043.075-.285.023-.234.054-.434.07-.48a1.3 1.3 0 0 0 .043-.215c.012-.086.031-.16.043-.164s.023-.024.023-.04c0-.027.133-.293.192-.386.015-.024.047-.051.066-.055a.5.5 0 0 0 .117-.117.5.5 0 0 1 .14-.133c.036-.016.06-.039.063-.05 0-.024.079-.067.313-.165a.4.4 0 0 0 .113-.062c0-.008.043-.028.094-.04.055-.015.098-.035.098-.042 0-.028.16-.09.234-.09q.065 0 .078-.035c.012-.04.082-.114.102-.114.023 0 .226-.214.226-.242 0-.012.02-.047.04-.078a.2.2 0 0 0 .042-.094c0-.02.028-.058.063-.09a.2.2 0 0 0 .074-.14c.004-.05.023-.152.035-.227.063-.367-.09-.91-.273-.98-.02-.008-.043-.024-.051-.04-.027-.042-.32-.155-.41-.155-.02 0-.059-.032-.09-.067s-.07-.062-.086-.062-.027-.016-.027-.032c0-.015-.032-.035-.067-.043-.156-.035-.34-.16-.34-.234 0-.055.086-.227.188-.379a.5.5 0 0 0 .07-.121c0-.012.004-.023.016-.023.008 0 .039-.051.066-.11a.4.4 0 0 1 .082-.12c.016-.005.028-.028.028-.052s.011-.047.027-.05c.02-.008.039-.036.043-.063.008-.031.027-.055.047-.055.015 0 .031-.02.031-.043s.008-.043.02-.043c.011 0 .035-.023.05-.058.02-.031.082-.11.141-.168a.5.5 0 0 0 .11-.145c0-.015.05-.074.109-.132a1 1 0 0 0 .136-.149.2.2 0 0 1 .079-.066c.03-.016.113-.09.183-.164a.6.6 0 0 1 .16-.141c.02 0 .047-.02.059-.047.031-.058.105-.121.144-.121.012 0 .032-.016.04-.035a.7.7 0 0 1 .218-.16c.008 0 .024-.02.032-.043q.009-.047.042-.035c.02.007.036.003.036-.004 0-.012.023-.028.05-.035.032-.008.055-.024.055-.036 0-.007.016-.023.035-.03a.16.16 0 0 0 .07-.056.16.16 0 0 1 .075-.043.3.3 0 0 0 .11-.05 2 2 0 0 1 .214-.117c.078-.04.152-.079.156-.086a2 2 0 0 1 .215-.094 2 2 0 0 0 .234-.106.3.3 0 0 1 .118-.043.7.7 0 0 0 .148-.043c.035-.015.082-.03.102-.039.02-.007.039-.03.039-.054s-.02-.047-.04-.051l-.292-.067a2 2 0 0 1-.293-.078.2.2 0 0 0-.059-.02c-.012 0-.094-.034-.187-.073-.149-.07-.258-.122-.348-.16a1 1 0 0 1-.195-.118q-.014-.015-.016-.004c0 .012-.02.004-.039-.011a.3.3 0 0 0-.09-.051.2.2 0 0 1-.086-.05c-.066-.067-.144-.126-.152-.118-.008.004-.031-.016-.063-.043-.027-.031-.054-.055-.062-.055a.4.4 0 0 1-.094-.07l-.152-.137c-.125-.105-.09-.39.05-.39q.024-.002.024-.016c0-.04.191-.152.293-.176a.5.5 0 0 0 .137-.055.15.15 0 0 1 .086-.03.2.2 0 0 0 .097-.044.26.26 0 0 1 .137-.054c.098-.016.168-.059.168-.106 0-.027.148-.094.203-.094.02 0 .031-.011.031-.023s.016-.02.035-.02c.016 0 .036-.015.043-.03a.05.05 0 0 1 .043-.032c.016 0 .043-.02.055-.043.016-.024.043-.043.063-.043s.074-.043.117-.094a.6.6 0 0 1 .133-.117c.023-.016.046-.04.046-.055a.8.8 0 0 1 .137-.152.7.7 0 0 0 .153-.168.6.6 0 0 1 .093-.133c.14-.164.172-.203.172-.23 0-.016.012-.035.027-.04a.4.4 0 0 0 .079-.113.7.7 0 0 1 .113-.172c.09-.097.121-.613.062-1.05a.8.8 0 0 0-.043-.18.3.3 0 0 1-.035-.086.26.26 0 0 0-.062-.11.3.3 0 0 1-.063-.105 1.3 1.3 0 0 0-.191-.234 3 3 0 0 1-.2-.219.4.4 0 0 0-.128-.094.7.7 0 0 1-.164-.113c-.028-.031-.067-.055-.086-.055-.02 0-.043-.02-.055-.043a.09.09 0 0 0-.074-.043c-.027 0-.055-.015-.063-.03-.007-.02-.03-.036-.058-.036a.5.5 0 0 1-.16-.062.8.8 0 0 0-.207-.079.4.4 0 0 1-.11-.027c-.078-.062-.613-.062-.695-.004a.4.4 0 0 1-.121.055c-.082.02-.39.25-.39.297a.6.6 0 0 1-.18.164.3.3 0 0 0-.098.062c-.04.035-.09.063-.11.063a.2.2 0 0 0-.078.023c-.129.074-.453.098-.59.047l-.214-.07a.6.6 0 0 1-.184-.082.3.3 0 0 0-.11-.067c-.093-.035-.085-.011-.132-.394-.043-.36-.055-.418-.067-.457-.011-.028-.05-.36-.085-.684a.7.7 0 0 0-.028-.136 2.5 2.5 0 0 1-.043-.387 8 8 0 0 0-.047-.457 17 17 0 0 1-.097-.742c-.012-.094-.078-.176-.114-.141a1.6 1.6 0 0 0-.039.285 33 33 0 0 1-.09.852c-.011.101-.03.27-.039.375a13 13 0 0 1-.043.34c-.011.082-.043.3-.066.48-.039.312-.059.414-.137.844-.105.57-.117.613-.164.633-.02.007-.043.058-.058.117-.02.074-.043.117-.078.136a.24.24 0 0 0-.086.098.6.6 0 0 1-.133.152 4 4 0 0 0-.203.18.4.4 0 0 1-.13.102.5.5 0 0 0-.136.054 1 1 0 0 1-.129.051c-.012 0-.031.016-.047.035-.015.016-.043.032-.062.032s-.059.02-.09.043c-.027.023-.059.039-.074.03a.4.4 0 0 0-.13.024 1 1 0 0 1-.183.031 1 1 0 0 0-.32.063c-.02.012-.047.016-.059.008a4 4 0 0 0-.379-.012c-.195 0-.379-.012-.406-.02a1 1 0 0 0-.223-.03.6.6 0 0 1-.222-.044.3.3 0 0 0-.125-.03c-.043 0-.078-.013-.086-.028s-.05-.035-.102-.043a.8.8 0 0 1-.37-.2.7.7 0 0 0-.134-.097c-.035-.016-.066-.035-.066-.043a.6.6 0 0 0-.105-.125 1.9 1.9 0 0 1-.32-.457.4.4 0 0 0-.071-.113c-.008-.004-.016-.028-.016-.051a.3.3 0 0 0-.027-.098 1 1 0 0 1-.055-.152l-.047-.176a.2.2 0 0 1-.007-.121.14.14 0 0 0-.016-.094.25.25 0 0 1-.02-.11.2.2 0 0 0-.011-.081.3.3 0 0 1-.02-.078c0-.032-.015-.141-.031-.246-.031-.235-.016-.672.031-.743a.5.5 0 0 0 .04-.183.5.5 0 0 1 .034-.16c.012-.012.024-.055.024-.094a.8.8 0 0 1 .078-.238c.043-.09.082-.2.09-.246a.3.3 0 0 1 .039-.13.2.2 0 0 0 .027-.078c0-.02.02-.043.043-.05q.042-.013.043-.067c0-.027.008-.05.02-.05.011 0 .023-.016.023-.04 0-.035.125-.234.195-.312.024-.024.04-.05.04-.066s.019-.032.042-.04c.024-.007.063-.058.086-.109a.33.33 0 0 1 .098-.125c.027-.02.05-.05.05-.066s.028-.059.063-.09.067-.067.067-.082c0-.016.031-.047.066-.07a.35.35 0 0 0 .11-.106 1 1 0 0 1 .132-.16.4.4 0 0 0 .094-.121c0-.012.016-.02.027-.02a.2.2 0 0 0 .079-.054c.027-.032.062-.055.078-.055q.03-.001.03-.02c0-.011.013-.023.028-.023s.051-.024.078-.05c.028-.032.067-.056.09-.056.024 0 .04-.007.04-.015 0-.012.034-.04.081-.063.13-.07.184-.101.211-.129.02-.015.043-.027.055-.027.016 0 .07-.043.117-.098a.4.4 0 0 1 .156-.109c.036-.008.07-.023.079-.039.003-.016.03-.035.058-.04.031-.007.055-.023.055-.034q.002-.019.027-.02c.035 0 .285-.125.3-.148.009-.012.04-.028.075-.035a.4.4 0 0 0 .121-.059.7.7 0 0 1 .27-.117.15.15 0 0 0 .082-.04.13.13 0 0 1 .086-.03c.031 0 .062-.012.07-.028.004-.015.055-.039.11-.055a.5.5 0 0 0 .109-.046c.004-.012.023-.02.043-.02a.4.4 0 0 0 .113-.05.3.3 0 0 1 .129-.055c.023 0 .05-.016.055-.032.007-.02.03-.035.046-.035.032 0 .157-.039.348-.11a1 1 0 0 1 .16-.027 1 1 0 0 0 .211-.05.7.7 0 0 1 .188-.055 1 1 0 0 0 .133-.031.3.3 0 0 1 .105-.035.4.4 0 0 0 .11-.032c.011-.011.054-.023.097-.027.04-.008.121-.027.18-.043a.7.7 0 0 1 .164-.035c.031 0 .062-.008.066-.02a.7.7 0 0 1 .176-.058.6.6 0 0 0 .172-.055c.004-.008.031-.016.058-.016a.5.5 0 0 0 .153-.058l.105-.059h.48c.266 0 .497.008.512.02.02.012.082.023.141.027.164.004.438.059.516.098.035.02.086.035.11.035.023 0 .046.008.054.02.004.007.05.023.097.03.047.009.086.024.086.036s.016.02.036.023c.023 0 .085.028.144.063s.121.066.14.074c.09.04.141.059.184.082s.27.215.309.258c.2.238.308.559.207.621-.012.008-.016.027-.008.047.008.015.004.043-.008.055a1 1 0 0 0-.054.132.6.6 0 0 1-.067.137c-.012.02-.047.074-.074.121-.027.051-.055.094-.066.094s-.067.074-.168.25a1 1 0 0 1-.122.168.3.3 0 0 0-.07.094c0 .011-.05.074-.117.136a.5.5 0 0 0-.117.141.24.24 0 0 1-.063.09 2 2 0 0 0-.148.195c-.078.11-.29.371-.32.395a.4.4 0 0 0-.04.066.5.5 0 0 1-.082.094 1.4 1.4 0 0 0-.222.223c0 .011-.04.03-.086.05-.098.04-.113.094-.031.114q.053.017.043.046c-.024.067.058.051.144-.03a.6.6 0 0 1 .145-.102.23.23 0 0 0 .09-.067c.023-.027.05-.05.062-.05.023 0 .156-.098.215-.153.02-.023.05-.039.062-.039a.7.7 0 0 0 .153-.082c.207-.125.21-.129.324-.184a.8.8 0 0 0 .176-.117.6.6 0 0 1 .129-.086c.035-.015.07-.039.074-.058.008-.016.031-.028.055-.028.023 0 .046-.011.05-.023.008-.031.133-.106.297-.184.07-.03.125-.07.125-.082 0-.015.04-.043.09-.066a.8.8 0 0 0 .18-.125 1 1 0 0 1 .129-.11.4.4 0 0 0 .082-.09.25.25 0 0 1 .113-.09c.039-.015.074-.038.082-.054.004-.015.027-.031.047-.031s.05-.016.066-.035a1 1 0 0 1 .196-.157c.011 0 .02-.015.02-.03q0-.031.03-.032c.016 0 .047-.023.067-.055.02-.027.047-.054.058-.054.016 0 .04-.024.051-.051.016-.031.04-.055.055-.055.02 0 .039-.02.047-.043.007-.023.023-.043.039-.043.015 0 .043-.02.062-.05a1 1 0 0 1 .07-.087c.067-.066.223-.273.223-.296a.3.3 0 0 1 .051-.086.3.3 0 0 0 .055-.078c0-.012.035-.067.074-.125a.4.4 0 0 0 .074-.122.8.8 0 0 0 .105-.223.8.8 0 0 1 .079-.167.3.3 0 0 0 .043-.094.2.2 0 0 1 .03-.07c.013-.004.02-.031.02-.059s.012-.058.024-.07c.015-.012.031-.082.035-.156.008-.082.023-.137.043-.145q.026-.013.027-.113c0-.055.012-.11.024-.117.047-.028.004-1.204-.047-1.204-.012 0-.02-.035-.02-.074s-.007-.078-.02-.086a.1.1 0 0 1-.023-.058.4.4 0 0 0-.03-.133 3 3 0 0 1-.052-.172.3.3 0 0 0-.062-.129.5.5 0 0 1-.067-.129 1 1 0 0 0-.09-.176.4.4 0 0 1-.062-.113c0-.008-.008-.02-.015-.02a.6.6 0 0 1-.133-.19c0-.013-.028-.036-.063-.052-.035-.02-.07-.054-.078-.082-.016-.05-.293-.336-.324-.336-.016 0-.024-.011-.024-.023 0-.031-.109-.125-.14-.125-.016 0-.04-.016-.051-.031a.15.15 0 0 0-.086-.043.3.3 0 0 1-.11-.067c-.027-.027-.066-.054-.085-.054-.024 0-.047-.008-.055-.02a.3.3 0 0 0-.105-.066.5.5 0 0 1-.13-.07.3.3 0 0 0-.109-.055.4.4 0 0 1-.12-.063c-.036-.031-.087-.043-.223-.054a1 1 0 0 1-.247-.043c-.046-.024-.097-.032-.136-.024s-.07.004-.078-.008c-.008-.011-.063-.023-.125-.023-.098 0-.243-.02-.73-.086-.2-.027-1.09-.04-1.388-.02M16.32 14.18c-.004.062-.004.129-.004.152 0 .059.067.559.079.578.015.031.078.328.097.473.008.074.028.176.04.222.011.047.046.192.073.32.028.13.075.294.106.368s.059.145.059.156.023.078.054.145c.102.226.113.254.113.285 0 .02.02.055.04.082.05.062.09.18.09.254 0 .031.019.09.042.129.07.129.141.285.157.343a.7.7 0 0 0 .078.149c.035.055.082.156.105.223.024.07.059.14.074.16a.7.7 0 0 1 .075.129.4.4 0 0 0 .086.132.3.3 0 0 1 .074.106c.02.043.055.09.078.102.023.015.055.05.066.085a.4.4 0 0 0 .121.141c.055.047.149.133.207.195a.6.6 0 0 0 .137.114c.028 0 .137.07.278.172a.5.5 0 0 1 .109.12c.023.036.058.07.078.07s.059.02.09.052c.031.027.148.101.265.16.118.062.227.121.239.129.023.02.219.09.383.14.168.051.222.075.222.102 0 .031-.168.11-.304.14a.3.3 0 0 0-.125.06.08.08 0 0 1-.055.027.3.3 0 0 0-.086.03 8 8 0 0 1-.25.118 2 2 0 0 0-.223.11l-.097.054a.6.6 0 0 0-.11.082.6.6 0 0 1-.148.102.7.7 0 0 0-.156.109c-.032.031-.09.078-.13.105a.6.6 0 0 0-.136.118c-.031.035-.07.066-.082.066-.035 0-.125.09-.125.121 0 .016-.012.035-.031.047a1.6 1.6 0 0 0-.301.305 2 2 0 0 1-.156.191 1 1 0 0 0-.11.137.7.7 0 0 1-.093.14 1 1 0 0 0-.098.137c0 .008-.02.043-.047.082-.023.035-.07.113-.098.172-.03.059-.058.113-.066.121a1.1 1.1 0 0 0-.184.254.6.6 0 0 1-.05.117 8 8 0 0 0-.165.29.4.4 0 0 0-.03.09c0 .019-.009.042-.02.05-.028.016-.098.168-.13.285a1 1 0 0 1-.05.152.5.5 0 0 0-.043.137 2 2 0 0 1-.055.203 2 2 0 0 0-.062.246 8 8 0 0 1-.11.579.6.6 0 0 0-.02.16c0 .293-.034.215-.116-.293a7 7 0 0 0-.133-.617l-.043-.204a.4.4 0 0 0-.027-.117 5 5 0 0 1-.16-.543 1 1 0 0 0-.098-.23.4.4 0 0 1-.063-.125c0-.063-.273-.63-.324-.664-.02-.016-.039-.04-.039-.055 0-.035-.125-.227-.184-.285a.6.6 0 0 1-.101-.152.5.5 0 0 0-.09-.133.4.4 0 0 1-.07-.086 3 3 0 0 0-.211-.242 1 1 0 0 1-.176-.215c0-.063-.7-.864-.754-.864a1 1 0 0 1-.137-.12 7 7 0 0 0-.582-.505c-.078-.039-.351-.222-.351-.242 0-.011.133-.062.297-.117s.304-.11.32-.125a.1.1 0 0 1 .059-.023c.02 0 .07-.028.113-.063a.3.3 0 0 1 .113-.062c.043 0 .16-.067.192-.11a.3.3 0 0 1 .101-.07c.04-.02.074-.05.074-.066a.03.03 0 0 1 .032-.032c.043 0 .183-.125.183-.164 0-.011.02-.031.043-.039a.7.7 0 0 0 .152-.144l.172-.192a.3.3 0 0 0 .059-.078.7.7 0 0 1 .129-.11c.07-.054.133-.116.14-.148a.8.8 0 0 1 .118-.18.5.5 0 0 0 .105-.152c0-.011.016-.039.035-.054.016-.016.055-.067.086-.11a1 1 0 0 1 .082-.117c.117-.137.227-.297.258-.375a.6.6 0 0 1 .11-.16q.07-.073.046-.09c-.015-.012-.015-.035.008-.086.016-.043.047-.125.067-.191a.7.7 0 0 1 .074-.172c.02-.028.05-.09.066-.137s.05-.125.078-.176a.5.5 0 0 0 .047-.113c0-.016.031-.086.067-.164a.7.7 0 0 0 .062-.176.4.4 0 0 1 .055-.133.8.8 0 0 0 .074-.21c.039-.192.07-.305.098-.352a.3.3 0 0 0 .027-.137c-.004-.055.012-.18.031-.277.02-.102.035-.235.035-.301 0-.062.008-.156.016-.203l.012-.082.031.07c.016.04.027.125.027.188m2.325 1.261c.043.024.136.059.21.082.122.036.317.176.29.207-.008.004.02.032.054.06.035.026.067.054.067.065a.4.4 0 0 0 .062.106.4.4 0 0 1 .063.11c0 .011.02.046.043.077.148.207.101.84-.067.915-.012.003-.02.023-.02.042 0 .024-.03.079-.066.125a.6.6 0 0 0-.136.204c-.008.023-.028.039-.043.039a.034.034 0 0 0-.032.03c0 .056-.336.333-.402.333-.008 0-.031.012-.043.031a.1.1 0 0 1-.066.031.1.1 0 0 0-.067.028 1 1 0 0 1-.152.105.5.5 0 0 0-.121.102c0 .008-.04.039-.086.062l-.086.047-.055-.117a.4.4 0 0 0-.082-.129c-.02-.004-.031-.035-.031-.066 0-.028-.016-.059-.031-.067-.032-.011-.043-.031-.172-.308a1 1 0 0 0-.098-.18c-.012-.004-.035-.07-.055-.137-.02-.07-.046-.129-.062-.129s-.031-.039-.04-.09a.5.5 0 0 0-.03-.113 1 1 0 0 1-.067-.18 1 1 0 0 0-.066-.183 2 2 0 0 1-.098-.285.4.4 0 0 0-.027-.098 1.6 1.6 0 0 1-.067-.293q0-.035.082-.058c.043-.016.118-.043.168-.067a.4.4 0 0 1 .125-.039c.02 0 .059-.02.09-.043a.2.2 0 0 1 .106-.043c.027 0 .047-.008.047-.02 0-.011.058-.03.27-.09.034-.007.116-.03.179-.05a1.4 1.4 0 0 1 .363-.05c.043 0 .11.015.149.034m-3.977 7.106a.5.5 0 0 0 .062.129c.012.02.067.12.114.226.05.106.101.211.113.23.012.024.047.118.078.216.027.093.063.183.074.203.075.09.098.258.036.258-.149 0-.594-.399-.594-.532a.13.13 0 0 0-.02-.058c-.039-.04-.117-.395-.101-.473.066-.453.066-.453.14-.367a.7.7 0 0 1 .098.168m2.512 1.527a1.5 1.5 0 0 1 .304.074.2.2 0 0 0 .086.032c.082.02.266.293.266.394 0 .035.008.11.023.168.024.098.02.113-.023.164a.24.24 0 0 0-.043.11c0 .066-.098.214-.152.234a.3.3 0 0 0-.102.063c-.113.093-.355.167-.59.171-.144.008-.219.02-.242.04-.023.027-.039.027-.102 0a.4.4 0 0 0-.12-.032c-.075 0-.079-.031-.036-.203a1 1 0 0 0 .04-.195c0-.028.011-.047.019-.047.012 0 .015-.031.008-.067q-.007-.06.015-.062c.012 0 .024-.016.024-.031 0-.043.082-.301.125-.395a1 1 0 0 0 .035-.086 1 1 0 0 0 .02-.097c.011-.047.03-.114.042-.149a1 1 0 0 0 .04-.098c.011-.03.09-.027.363.012m-1.52 1.637c0 .023.008.055.02.074.015.031.086.559.086.649 0 .02-.012.011-.028-.016l-.074-.117a.3.3 0 0 1-.047-.113.13.13 0 0 0-.023-.07c-.031-.028-.04-.43-.012-.552l.016-.082.03.094c.017.055.028.113.032.133"/></g></svg>